<svg id="visual" viewBox="0 0 1200 600" width="1200" height="600" xmlns="http://www.w3.org/2000/svg" xmlns:xlink="http://www.w3.org/1999/xlink" version="1.1"><rect x="0" y="0" width="1200" height="600" fill="#931C1C"></rect><path d="M0 434L171 384L343 446L514 408L686 382L857 373L1029 372L1200 416L1200 601L1029 601L857 601L686 601L514 601L343 601L171 601L0 601Z" fill="#f5730a"></path><path d="M0 458L171 446L343 418L514 480L686 450L857 434L1029 451L1200 460L1200 601L1029 601L857 601L686 601L514 601L343 601L171 601L0 601Z" fill="#da5b09"></path><path d="M0 468L171 445L343 486L514 458L686 491L857 506L1029 483L1200 451L1200 601L1029 601L857 601L686 601L514 601L343 601L171 601L0 601Z" fill="#be4407"></path><path d="M0 512L171 534L343 482L514 527L686 526L857 503L1029 486L1200 514L1200 601L1029 601L857 601L686 601L514 601L343 601L171 601L0 601Z" fill="#a32d04"></path><path d="M0 556L171 551L343 525L514 562L686 540L857 551L1029 532L1200 550L1200 601L1029 601L857 601L686 601L514 601L343 601L171 601L0 601Z" fill="#871400"></path></svg>