<svg id="visual" viewBox="0 0 1200 700" width="1200" height="700" xmlns="http://www.w3.org/2000/svg" xmlns:xlink="http://www.w3.org/1999/xlink" version="1.1"><path d="M0 197L18.2 183C36.3 169 72.7 141 109 136.3C145.3 131.7 181.7 150.3 218 163.2C254.3 176 290.7 183 327 202.8C363.3 222.7 399.7 255.3 436 255.3C472.3 255.3 508.7 222.7 545.2 228.5C581.7 234.3 618.3 278.7 654.8 271.7C691.3 264.7 727.7 206.3 764 193.5C800.3 180.7 836.7 213.3 873 218C909.3 222.7 945.7 199.3 982 190C1018.3 180.7 1054.7 185.3 1091 186.5C1127.3 187.7 1163.7 185.3 1181.8 184.2L1200 183L1200 0L1181.8 0C1163.7 0 1127.3 0 1091 0C1054.7 0 1018.3 0 982 0C945.7 0 909.3 0 873 0C836.7 0 800.3 0 764 0C727.7 0 691.3 0 654.8 0C618.3 0 581.7 0 545.2 0C508.7 0 472.3 0 436 0C399.7 0 363.3 0 327 0C290.7 0 254.3 0 218 0C181.7 0 145.3 0 109 0C72.7 0 36.3 0 18.2 0L0 0Z" fill="#377ebb"></path><path d="M0 288L18.2 267C36.3 246 72.7 204 109 202.8C145.3 201.7 181.7 241.3 218 261.2C254.3 281 290.7 281 327 300.8C363.3 320.7 399.7 360.3 436 362.7C472.3 365 508.7 330 545.2 331.2C581.7 332.3 618.3 369.7 654.8 363.8C691.3 358 727.7 309 764 289.2C800.3 269.3 836.7 278.7 873 271.7C909.3 264.7 945.7 241.3 982 232C1018.3 222.7 1054.7 227.3 1091 237.8C1127.3 248.3 1163.7 264.7 1181.8 272.8L1200 281L1200 181L1181.8 182.2C1163.7 183.3 1127.3 185.7 1091 184.5C1054.7 183.3 1018.3 178.7 982 188C945.7 197.3 909.3 220.7 873 216C836.7 211.3 800.3 178.7 764 191.5C727.7 204.3 691.3 262.7 654.8 269.7C618.3 276.7 581.7 232.3 545.2 226.5C508.7 220.7 472.3 253.3 436 253.3C399.7 253.3 363.3 220.7 327 200.8C290.7 181 254.3 174 218 161.2C181.7 148.3 145.3 129.7 109 134.3C72.7 139 36.3 167 18.2 181L0 195Z" fill="#4395d9"></path><path d="M0 365L18.2 356.8C36.3 348.7 72.7 332.3 109 335.8C145.3 339.3 181.7 362.7 218 380.2C254.3 397.7 290.7 409.3 327 423.3C363.3 437.3 399.7 453.7 436 445.5C472.3 437.3 508.7 404.7 545.2 405.8C581.7 407 618.3 442 654.8 437.3C691.3 432.7 727.7 388.3 764 367.3C800.3 346.3 836.7 348.7 873 352.2C909.3 355.7 945.7 360.3 982 358C1018.3 355.7 1054.7 346.3 1091 340.5C1127.3 334.7 1163.7 332.3 1181.8 331.2L1200 330L1200 279L1181.8 270.8C1163.7 262.7 1127.3 246.3 1091 235.8C1054.7 225.3 1018.3 220.7 982 230C945.7 239.3 909.3 262.7 873 269.7C836.7 276.7 800.3 267.3 764 287.2C727.7 307 691.3 356 654.8 361.8C618.3 367.7 581.7 330.3 545.2 329.2C508.7 328 472.3 363 436 360.7C399.7 358.3 363.3 318.7 327 298.8C290.7 279 254.3 279 218 259.2C181.7 239.3 145.3 199.7 109 200.8C72.7 202 36.3 244 18.2 265L0 286Z" fill="#4facf7"></path><path d="M0 540L18.2 522.5C36.3 505 72.7 470 109 468.8C145.3 467.7 181.7 500.3 218 526C254.3 551.7 290.7 570.3 327 570.3C363.3 570.3 399.7 551.7 436 541.2C472.3 530.7 508.7 528.3 545.2 533C581.7 537.7 618.3 549.3 654.8 542.3C691.3 535.3 727.7 509.7 764 507.3C800.3 505 836.7 526 873 520.2C909.3 514.3 945.7 481.7 982 474.7C1018.3 467.7 1054.7 486.3 1091 492.2C1127.3 498 1163.7 491 1181.8 487.5L1200 484L1200 328L1181.8 329.2C1163.7 330.3 1127.3 332.7 1091 338.5C1054.7 344.3 1018.3 353.7 982 356C945.7 358.3 909.3 353.7 873 350.2C836.7 346.7 800.3 344.3 764 365.3C727.7 386.3 691.3 430.7 654.8 435.3C618.3 440 581.7 405 545.2 403.8C508.7 402.7 472.3 435.3 436 443.5C399.7 451.7 363.3 435.3 327 421.3C290.7 407.3 254.3 395.7 218 378.2C181.7 360.7 145.3 337.3 109 333.8C72.7 330.3 36.3 346.7 18.2 354.8L0 363Z" fill="#6fb9f8"></path><path d="M0 701L18.2 701C36.3 701 72.7 701 109 701C145.3 701 181.7 701 218 701C254.3 701 290.7 701 327 701C363.3 701 399.7 701 436 701C472.3 701 508.7 701 545.2 701C581.7 701 618.3 701 654.8 701C691.3 701 727.7 701 764 701C800.3 701 836.7 701 873 701C909.3 701 945.7 701 982 701C1018.3 701 1054.7 701 1091 701C1127.3 701 1163.7 701 1181.8 701L1200 701L1200 482L1181.8 485.5C1163.7 489 1127.3 496 1091 490.2C1054.7 484.3 1018.3 465.7 982 472.7C945.7 479.7 909.3 512.3 873 518.2C836.7 524 800.3 503 764 505.3C727.7 507.7 691.3 533.3 654.8 540.3C618.3 547.3 581.7 535.7 545.2 531C508.7 526.3 472.3 528.7 436 539.2C399.7 549.7 363.3 568.3 327 568.3C290.7 568.3 254.3 549.7 218 524C181.7 498.3 145.3 465.7 109 466.8C72.7 468 36.3 503 18.2 520.5L0 538Z" fill="#8bc6f9"></path></svg>